<svg width="1440" height="320" viewBox="0 0 1440 320" xmlns="http://www.w3.org/2000/svg">
<path fill="#BCE2F5" fill-opacity="0.5" d="M0,224L60,213.3C120,203,240,181,360,181.3C480,181,600,203,720,224C840,245,960,267,1080,261.3C1200,256,1320,224,1380,208L1440,192L1440,320L1380,320C1320,320,1200,320,1080,320C960,320,840,320,720,320C600,320,480,320,360,320C240,320,120,320,60,320L0,320Z"></path>
<path fill="#88C9EA" fill-opacity="1" d="M0,204L80,213.3C160,223,320,245,480,245.3C640,245,800,223,960,208C1120,192,1280,182,1360,176L1440,171L1440,320L1360,320C1280,320,1120,320,960,320C800,320,640,320,480,320C320,320,160,320,80,320L0,320Z"></path>
</svg>
